<?xml version="1.0" encoding="UTF-8" standalone="no"?>
<!-- Created with Inkscape (http://www.inkscape.org/) -->

<svg
   xmlns:dc="http://purl.org/dc/elements/1.1/"
   xmlns:cc="http://creativecommons.org/ns#"
   xmlns:rdf="http://www.w3.org/1999/02/22-rdf-syntax-ns#"
   xmlns:svg="http://www.w3.org/2000/svg"
   xmlns="http://www.w3.org/2000/svg"
   xmlns:sodipodi="http://sodipodi.sourceforge.net/DTD/sodipodi-0.dtd"
   xmlns:inkscape="http://www.inkscape.org/namespaces/inkscape"
   version="1.1"
   id="svg2"
   width="20"
   height="20"
   viewBox="0 0 20 20"
   sodipodi:docname="LUPA.svg"
   inkscape:version="0.92.5 (2060ec1f9f, 2020-04-08)">
  <metadata
     id="metadata8">
    <rdf:RDF>
      <cc:Work
         rdf:about="">
        <dc:format>image/svg+xml</dc:format>
        <dc:type
           rdf:resource="http://purl.org/dc/dcmitype/StillImage" />
        <dc:title></dc:title>
      </cc:Work>
    </rdf:RDF>
  </metadata>
  <defs
     id="defs6" />
  <sodipodi:namedview
     pagecolor="#ffffff"
     bordercolor="#666666"
     borderopacity="1"
     objecttolerance="10"
     gridtolerance="10"
     guidetolerance="10"
     inkscape:pageopacity="0"
     inkscape:pageshadow="2"
     inkscape:window-width="1366"
     inkscape:window-height="704"
     id="namedview4"
     showgrid="false"
     inkscape:zoom="2.0025263"
     inkscape:cx="67.266099"
     inkscape:cy="22.887329"
     inkscape:window-x="0"
     inkscape:window-y="0"
     inkscape:window-maximized="1"
     inkscape:current-layer="svg2" />
  <path
     style="fill:#000000;stroke-width:0.06940231"
     d="m 17.546326,19.945673 c -0.120968,-0.0288 -0.355279,-0.13255 -0.520692,-0.23056 -0.377886,-0.22393 -5.550111,-5.40971 -5.723859,-5.73886 -0.09163,-0.17359 -0.128178,-0.39121 -0.128178,-0.76317 0,-0.61451 0.0934,-0.82446 0.609183,-1.36947 l 0.351599,-0.37151 -0.915679,-0.91695 c -0.503623,-0.50433 -0.914795,-0.96337 -0.913716,-1.0201 0.0011,-0.0567 0.126201,-0.29002 0.278047,-0.51844 0.63888,-0.96106 0.943039,-2.09966 0.879751,-3.2933 -0.04825,-0.91003 -0.172956,-1.3919 -0.566401,-2.18862 C 10.338416,2.404823 9.5596663,1.638523 8.3938191,1.072143 7.4407974,0.60915299 6.8453887,0.48909299 5.7296076,0.53490299 c -0.6984042,0.0287 -0.9893391,0.0737 -1.4318956,0.22143 C 2.4515777,1.372723 1.0904681,2.848643 0.64777663,4.714143 c -0.2969988,1.25155 -0.0902364,2.85631 0.50276777,3.90215 0.7227314,1.27463 1.8904665,2.22303 3.2423328,2.63332 0.5200193,0.15783 0.7273749,0.18229 1.5710478,0.18537 1.4353686,0.005 2.2917802,-0.2777 3.419118,-1.12957 0.6091664,-0.46032 0.80194,-0.50655 0.837389,-0.2008 0.01584,0.13666 -0.02524,0.21649 -0.155214,0.3016 l -0.1767637,0.11574 0.6759067,0.69087 c 0.714123,0.72994 0.83605,0.97605 0.502342,1.01399 -0.139206,0.0158 -0.309291,-0.11662 -0.859192,-0.6691 l -0.6856282,-0.68883 -0.3904682,0.23569 c -1.9047407,1.14969 -4.3613917,1.15643 -6.2453386,0.0171 -0.567987,-0.34349 -1.2676715,-0.95937 -1.6413265,-1.44475 -0.39982916,-0.51937 -0.91786048,-1.56917 -1.09236036,-2.21368 -0.20567056,-0.75963 -0.20270522,-2.18124 0.006165,-2.95726 0.57627433,-2.141 2.20635706,-3.76988001 4.34743076,-4.34421001 0.8027946,-0.21535 2.1344768,-0.21578 2.9505858,-9.6e-4 2.9108913,0.76624 4.8006163,3.47015001 4.5042413,6.44490001 -0.08034,0.80643 -0.276872,1.43567 -0.70495,2.25712 l -0.354241,0.67977 0.950358,0.95154 c 0.522701,0.52335 0.950362,0.9908 0.950362,1.03879 0,0.048 -0.23187,0.31296 -0.515266,0.58882 -0.609933,0.59373 -0.74282,0.90041 -0.600644,1.38616 0.07398,0.25275 0.474701,0.68454 2.805367,3.02286 1.495486,1.50039 2.803428,2.77263 2.906538,2.82719 0.263944,0.13968 0.777239,0.12371 1.082309,-0.0337 0.305263,-0.15748 0.718353,-0.57635 0.874761,-0.88701 0.13861,-0.27532 0.144692,-0.79834 0.01218,-1.04758 -0.05478,-0.10304 -1.312254,-1.39604 -2.794378,-2.87333 -1.949107,-1.94275 -2.771615,-2.71762 -2.972475,-2.80031 -0.390368,-0.1607 -0.462231,-0.28599 -0.272681,-0.47542 0.132107,-0.13202 0.365075,-0.09 0.75866,0.13693 0.387795,0.22355 5.606846,5.48483 5.747989,5.79448 0.188796,0.41421 0.213947,0.77247 0.08528,1.21477 -0.09899,0.34029 -0.196481,0.48298 -0.617327,0.90355 -0.405358,0.40508 -0.570555,0.52044 -0.874474,0.61063 -0.402358,0.11941 -0.538754,0.12632 -0.881858,0.0446 z M 5.4779464,10.576793 C 4.4402065,10.458943 3.4285653,9.954763 2.6495508,9.167163 1.7880578,8.296173 1.2829537,6.945243 1.3740815,5.755843 c 0.040972,-0.53475 0.1620798,-0.71242 0.3991887,-0.58561 0.1130218,0.0605 0.1293642,0.15816 0.1300849,0.77783 9.58e-4,0.82471 0.1035895,1.26914 0.4592395,1.98868 0.8045945,1.62784 2.8255978,2.49769 4.6937533,2.02022 0.7151777,-0.18279 1.2463627,-0.49587 1.8262814,-1.0764 1.5706537,-1.57232 1.6302627,-4.0488 0.1360197,-5.65101 -0.8414537,-0.90225 -1.8030991,-1.32591 -3.0062382,-1.32444 -0.7961999,9.7e-4 -1.2526741,0.10948 -1.9547876,0.46469 -0.6282128,0.31781 -1.3393234,0.99951 -1.6365237,1.56883 -0.2169597,0.41561 -0.386211,0.53249 -0.5610759,0.38746 -0.1483117,-0.12301 -0.073913,-0.3552 0.2882528,-0.89961 1.6030468,-2.40971 5.0342413,-2.76197001 7.0730549,-0.72613 0.7941787,0.79302 1.2327767,1.68388 1.3516137,2.74536 0.332817,2.9728 -2.1431279,5.46628 -5.0949986,5.13108 z m 1.831783,-6.65098 C 6.843837,3.562203 6.5435849,3.467283 5.8944997,3.478413 c -0.3436565,0.006 -0.7341752,0.021 -0.8678196,0.0335 -0.2176381,0.0204 -0.2429895,0.005 -0.2429895,-0.14678 0,-0.12035 0.070508,-0.21095 0.2429895,-0.3122 0.3472405,-0.20385 1.2676904,-0.1933 1.8151184,0.0208 0.750466,0.2935 1.1128678,0.66393 0.8785931,0.89805 -0.1158237,0.11575 -0.2181354,0.10429 -0.4106622,-0.046 z"
     id="path12"
     inkscape:connector-curvature="0"
     sodipodi:nodetypes="cscsscscssssssssssccccssscsssscscssccsscsccccscccccscccscsccssssscscsssscccssssc" />
</svg>
