<?xml version="1.0" encoding="UTF-8" standalone="no"?>
<!-- Created with Inkscape (http://www.inkscape.org/) -->

<svg
   xmlns:dc="http://purl.org/dc/elements/1.1/"
   xmlns:cc="http://creativecommons.org/ns#"
   xmlns:rdf="http://www.w3.org/1999/02/22-rdf-syntax-ns#"
   xmlns:svg="http://www.w3.org/2000/svg"
   xmlns="http://www.w3.org/2000/svg"
   xmlns:sodipodi="http://sodipodi.sourceforge.net/DTD/sodipodi-0.dtd"
   xmlns:inkscape="http://www.inkscape.org/namespaces/inkscape"
   width="252.895"
   height="40.004002"
   viewBox="0 0 66.911802 10.584392"
   version="1.1"
   id="svg8"
   inkscape:version="0.92.5 (2060ec1f9f, 2020-04-08)"
   sodipodi:docname="RedesSociais.svg">
  <defs
     id="defs2">
    <linearGradient
       x1="0"
       y1="0"
       x2="1"
       y2="0"
       gradientUnits="userSpaceOnUse"
       gradientTransform="matrix(-1.9689175e-7,4.5121024,-4.5121024,-1.9689175e-7,47.87973,276.44999)"
       spreadMethod="pad"
       id="linearGradient340">
      <stop
         style="stop-opacity:1;stop-color:#ec2d38"
         offset="0"
         id="stop336" />
      <stop
         style="stop-opacity:1;stop-color:#85379f"
         offset="1"
         id="stop338" />
    </linearGradient>
    <linearGradient
       x1="0"
       y1="0"
       x2="1"
       y2="0"
       gradientUnits="userSpaceOnUse"
       gradientTransform="matrix(-1.0516708e-7,2.4063176,-2.4063176,-1.0516708e-7,51.180711,275.24672)"
       spreadMethod="pad"
       id="linearGradient362">
      <stop
         style="stop-opacity:1;stop-color:#f4706e"
         offset="0"
         id="stop358" />
      <stop
         style="stop-opacity:1;stop-color:#fbc15b"
         offset="1"
         id="stop360" />
    </linearGradient>
    <linearGradient
       x1="0"
       y1="0"
       x2="1"
       y2="0"
       gradientUnits="userSpaceOnUse"
       gradientTransform="matrix(5.7311708,0,0,5.7311708,45.01418,274.19388)"
       spreadMethod="pad"
       id="linearGradient318">
      <stop
         style="stop-opacity:1;stop-color:#5dc7a6"
         offset="0"
         id="stop314" />
      <stop
         style="stop-opacity:1;stop-color:#daed84"
         offset="1"
         id="stop316" />
    </linearGradient>
    <linearGradient
       x1="0"
       y1="0"
       x2="1"
       y2="0"
       gradientUnits="userSpaceOnUse"
       gradientTransform="matrix(-3.9141129e-7,8.9592068,-8.9592068,-3.9141129e-7,47.273051,271.97034)"
       spreadMethod="pad"
       id="linearGradient296">
      <stop
         style="stop-opacity:1;stop-color:#3a7ab6"
         offset="0"
         id="stop290" />
      <stop
         style="stop-opacity:1;stop-color:#8ad6b6"
         offset="0.88094861"
         id="stop292" />
      <stop
         style="stop-opacity:1;stop-color:#8ad6b6"
         offset="1"
         id="stop294" />
    </linearGradient>
  </defs>
  <sodipodi:namedview
     id="base"
     pagecolor="#ffffff"
     bordercolor="#666666"
     borderopacity="1.0"
     inkscape:pageopacity="0.0"
     inkscape:pageshadow="2"
     inkscape:zoom="3.959798"
     inkscape:cx="268.46101"
     inkscape:cy="48.574742"
     inkscape:document-units="mm"
     inkscape:current-layer="layer1"
     showgrid="false"
     units="px"
     inkscape:window-width="1366"
     inkscape:window-height="704"
     inkscape:window-x="0"
     inkscape:window-y="0"
     inkscape:window-maximized="1" />
  <metadata
     id="metadata5">
    <rdf:RDF>
      <cc:Work
         rdf:about="">
        <dc:format>image/svg+xml</dc:format>
        <dc:type
           rdf:resource="http://purl.org/dc/dcmitype/StillImage" />
        <dc:title></dc:title>
      </cc:Work>
    </rdf:RDF>
  </metadata>
  <g
     inkscape:label="Camada 1"
     inkscape:groupmode="layer"
     id="layer1"
     transform="translate(0,-286.41559)">
    <path
       style="fill:#000000;stroke-width:0.10113699"
       d="m 23.037666,296.89682 c -0.425563,-0.0574 -0.955057,-0.23429 -1.501482,-0.50179 -1.843861,-0.90266 -2.948545,-2.66058 -2.948545,-4.69212 0,-4.07893 4.466653,-6.63066 7.950198,-4.54182 2.955144,1.77198 3.459183,5.8183 1.02827,8.25473 -1.174764,1.17742 -2.810574,1.71241 -4.528441,1.481 z m -0.202424,-2.15985 c 1.590739,0.48163 3.191856,-0.20198 3.956867,-1.68943 0.333452,-0.64836 0.376138,-1.77841 0.09528,-2.52259 -0.285228,-0.75576 -0.888704,-1.42384 -1.603028,-1.77461 -0.497657,-0.24439 -0.697363,-0.28347 -1.437606,-0.28132 -0.704212,0.002 -0.951107,0.0473 -1.36535,0.25043 -1.514752,0.74268 -2.217264,2.42915 -1.676724,4.02516 l 0.215792,0.63717 -0.20505,0.68852 c -0.112778,0.37869 -0.205052,0.73529 -0.205052,0.79245 0,0.0628 0.322655,0.0229 0.815421,-0.10085 0.793301,-0.19923 1.409443,-0.62876 1.409443,-0.025 z m -0.02358,-0.65172 c -0.390438,-0.15261 -0.554507,-0.16797 -0.888581,-0.0832 -0.22535,0.0572 -0.427456,0.0863 -0.449124,0.0646 -0.02166,-0.0217 0.01061,-0.22673 0.07172,-0.45571 0.09383,-0.35154 0.08174,-0.47726 -0.0778,-0.8082 -0.297839,-0.61787 -0.316779,-1.51553 -0.0453,-2.14661 0.269315,-0.62605 1.055681,-1.37857 1.597953,-1.52917 1.383705,-0.38433 2.864361,0.31997 3.288285,1.56411 0.774614,2.27336 -1.275132,4.26274 -3.497167,3.39415 z m 2.481096,-1.09545 c 0.306513,-0.27626 0.183154,-0.64955 -0.271616,-0.82193 -0.375523,-0.14236 -0.401543,-0.13884 -0.577218,0.0781 -0.158181,0.19534 -0.216473,0.21049 -0.415845,0.10805 -0.359074,-0.1845 -0.889269,-0.72323 -0.889269,-0.90358 0,-0.0892 0.05249,-0.21471 0.11667,-0.27888 0.08813,-0.0882 0.07373,-0.22913 -0.05893,-0.57648 -0.139855,-0.3662 -0.224206,-0.45981 -0.414346,-0.45981 -0.582257,0 -0.729621,0.89653 -0.267214,1.62566 0.744539,1.17402 2.665928,2.06767 2.777771,1.22885 z m 16.158087,3.86295 c -1.903451,-0.5119 -3.392899,-2.09318 -3.802893,-4.03733 -0.187021,-0.88684 -0.187086,-1.23628 -4.2e-4,-2.12388 0.514914,-2.44802 2.664198,-4.19719 5.157267,-4.19719 3.30973,0 5.837251,3.06755 5.166601,6.27049 -0.422783,2.01919 -1.895356,3.58222 -3.856019,4.0929 -0.735727,0.19163 -1.94185,0.18937 -2.664569,-0.005 z m 1.011489,-2.37 c 0.676648,-1.57884 3.047938,-1.78261 3.19874,-3.4457 0.05,-0.55132 0.103968,-0.6829 0.402669,-0.9816 0.38891,-0.38891 0.407967,-0.38993 -0.01552,-0.32739 l -0.273867,0.10413 0.220306,-0.30939 c 0.121169,-0.17016 0.202222,-0.32748 0.180116,-0.34958 -0.02209,-0.0221 -0.21924,0.0214 -0.438081,0.0966 -0.356085,0.12242 -0.422004,0.11782 -0.627353,-0.0437 -0.378443,-0.29769 -0.880674,-0.33983 -1.386004,-0.11628 -0.523923,0.23175 -0.763621,0.55467 -0.841231,1.1333 l -0.0562,0.41897 -0.415098,-0.0658 c -0.624598,-0.0991 -1.406993,-0.49335 -1.92281,-0.96881 l -0.460913,-0.42485 -0.111085,0.28937 c -0.145373,0.3787 -0.05347,0.91724 0.219548,1.28651 l 0.218743,0.29586 -0.280229,-0.0703 c -0.271875,-0.0682 -0.278321,-0.0604 -0.216183,0.26373 0.03899,0.20333 0.220918,0.48248 0.464915,0.71333 0.325474,0.30793 0.363563,0.37926 0.202514,0.37926 -0.109098,0 -0.198358,0.044 -0.198358,0.0978 0,0.17938 0.711888,0.81246 0.913604,0.81246 0.633214,0 -0.288321,0.48623 -1.128058,0.59519 l -0.544073,0.0706 0.326687,0.17436 c 0.406896,0.21716 1.289881,0.45915 1.707532,0.46798 0.17319,0.004 0.739565,0.18434 0.859664,-0.0959 z m 17.986678,2.39096 c -1.311446,-0.33372 -2.669538,-1.32149 -3.296508,-2.39762 -1.769953,-3.03794 -0.25865,-6.85297 3.101763,-7.82987 1.196424,-0.34781 2.899914,-0.15149 3.962958,0.45673 1.702552,0.97411 2.684492,2.63637 2.69453,4.56144 0.01223,2.34612 -1.369755,4.30212 -3.568766,5.05106 -0.800176,0.27251 -2.153991,0.34655 -2.893977,0.15826 z m 3.916821,-2.49067 c 0.191056,-0.19106 0.202271,-0.33712 0.202271,-2.63416 V 289.317 l -0.248245,-0.24825 -0.248245,-0.24825 h -2.431886 c -2.297035,0 -2.4431,0.0111 -2.634156,0.20228 -0.191343,0.19134 -0.202276,0.33712 -0.202276,2.69745 0,2.17986 0.02114,2.51855 0.167384,2.68013 0.153599,0.16972 0.374261,0.18495 2.680127,0.18495 2.3779,0 2.523606,-0.0108 2.715026,-0.20227 z m -4.854576,-1.76789 c 7e-6,-1.17095 0.01429,-1.26622 0.18975,-1.26622 0.156676,0 0.197683,0.0957 0.235275,0.54897 0.176755,2.13147 3.291462,2.0902 3.496758,-0.0463 0.03938,-0.4098 0.08385,-0.50262 0.240813,-0.50262 0.180333,0 0.190723,0.0784 0.164123,1.23893 l -0.0284,1.23893 -2.149162,0.0273 -2.149159,0.0273 z m 1.408137,-0.14593 c -0.498531,-0.49853 -0.36959,-1.34423 0.256345,-1.68132 0.645959,-0.34786 1.416633,0.0479 1.53695,0.78938 0.159479,0.98276 -1.084,1.60123 -1.793295,0.89194 z m 1.949609,-1.94962 c -0.132821,-0.13282 -0.152962,-0.40774 -0.05631,-0.76858 0.05525,-0.20629 0.115088,-0.22914 0.529588,-0.20228 l 0.467297,0.0302 0.03185,0.4451 c 0.02056,0.28762 -0.01522,0.47493 -0.10114,0.52942 -0.198059,0.12559 -0.732567,0.10477 -0.871282,-0.0339 z m -57.0940097,4.36912 v -2.02273 h 0.5562533 0.5562535 v -0.6574 -0.65739 H 6.3312433 5.7749901 v -0.45156 c 0,-0.554 0.2214152,-0.71354 0.8674315,-0.62499 0.4167965,0.0572 0.4346859,0.0483 0.4905295,-0.24118 0.1830856,-0.94915 0.1950488,-0.87481 -0.1519218,-0.9442 -0.1765991,-0.0353 -0.6460709,-0.0642 -1.0432696,-0.0642 -1.247404,0 -1.7600379,0.46052 -1.8569808,1.66822 l -0.051982,0.6476 -0.4164001,0.0304 -0.4163991,0.0304 -0.03011,0.63212 -0.03011,0.63211 H 3.5957194 4.055662 v 1.98313 1.98314 l -0.2781265,-0.0653 C 3.1139928,296.61104 2.1606195,296.04288 1.5720291,295.45255 0.47025893,294.3475 0.00309707,293.21817 1.0787324e-5,291.65231 -0.00401431,289.6109 1.1185969,287.84808 2.9984477,286.94391 c 2.8764174,-1.38349 6.2446698,0.0914 7.2882823,3.19134 0.131895,0.39179 0.187836,0.8553 0.189198,1.56763 0.0017,0.85769 -0.04059,1.12663 -0.277941,1.7699 -0.6012125,1.62943 -1.9355133,2.86549 -3.5633324,3.30097 -0.9297016,0.24871 -0.8596641,0.40229 -0.8596641,-1.88506 z"
       id="path21"
       inkscape:connector-curvature="0"
       sodipodi:nodetypes="csssscccsccsccsscsccccsccscccccsccscccscccccccccsccscccsccccscccccsssccccccssscscscscccscscsccscsscccccccscccccccccccccccccscccsscccccccccccssscccccccc" />
  </g>
</svg>
